<svg id="Layer_1" data-name="Layer 1" xmlns="http://www.w3.org/2000/svg" viewBox="0 0 405.12 405.12"><defs><style>.cls-1{fill:#fff;}</style></defs><path class="cls-1" d="M246.23,407.27a151.27,151.27,0,1,1,161-161A10.71,10.71,0,0,0,418,256h30a10.71,10.71,0,0,0,10.71-10.71C452.63,133.51,357.08,47.81,245.29,53.89S47.81,155.52,53.89,267.3a202.71,202.71,0,0,0,191.4,191.41A10.71,10.71,0,0,0,256,448V418a10.7,10.7,0,0,0-9.77-10.82Z" transform="translate(-53.59 -53.59)"/><path class="cls-1" d="M458.71,363.75V383a12.81,12.81,0,0,1-12.8,12.8H395.64v50.16a12.81,12.81,0,0,1-12.8,12.8H363.75a12.81,12.81,0,0,1-12.8-12.8V395.64H300.8a12.8,12.8,0,0,1-12.8-12.8V363.75A12.8,12.8,0,0,1,300.8,351H351V300.8a12.8,12.8,0,0,1,12.8-12.8H383a12.8,12.8,0,0,1,12.8,12.8V351h50.16a12.81,12.81,0,0,1,12.8,12.8Z" transform="translate(-53.59 -53.59)"/></svg>