<svg id="Layer_1" data-name="Layer 1" xmlns="http://www.w3.org/2000/svg" viewBox="0 0 220 181.54"><defs><style>.cls-1{fill:#96d7c6;}.cls-2{fill:#393e46;}</style></defs><g id="SvgjsG1245"><path class="cls-1" d="M141.88,18.38A6.1,6.1,0,0,0,138.64,14c-2.72-1.4-6.57-1-9.8-.17,2.16-3.27,3.61-6.65,3.2-9.33A5.14,5.14,0,0,0,128.67.38C124.45-1.26,118.5,2.8,114.73,6a5.91,5.91,0,0,0-4.59-3.61,9.45,9.45,0,0,0-7.61,1.36C97.81,6.88,95.7,13.87,95,16.87A29.66,29.66,0,0,0,78.6,21c-24,13.88-36,43-36.46,44.26A2,2,0,0,0,43.7,68a94.51,94.51,0,0,0,12.35.7A113.42,113.42,0,0,0,75.71,67a1.93,1.93,0,0,0,.76-.33l10.8,20.18c4,7.42,10.56,10.76,17.52,9,.82,1.55,2.21,4.19,3.87,7.29a2,2,0,0,0,3.47-1.86c-2.64-4.92-4.6-8.7-4.61-8.7a2,2,0,0,0-2.42-.94c-5.66,2.08-11-.41-14.36-6.65L80.18,65.23a10.31,10.31,0,0,0,3.15-1.62l6.28,11.72a6,6,0,0,0,3.56,3,5.59,5.59,0,0,0,4.27-.45,5.77,5.77,0,0,0,2.22-8L92.74,57.29a8.94,8.94,0,0,0,3.17-1.6l6.89,12.58a5.71,5.71,0,1,0,10.07-5.37L105.5,48.81a11.4,11.4,0,0,0,3.12-1.69l11.63,22.06c3,5.68,2,11.31-2.72,15.43a2,2,0,0,0-.45,2.42l8.6,16.07a2,2,0,0,0,1.73,1,1.91,1.91,0,0,0,.93-.23,2,2,0,0,0,.81-2.67L121.26,86.5c5.11-5.22,6.07-12.43,2.47-19.18l-11.09-21s.08-.08.1-.13a24.63,24.63,0,0,0,1-3.38,36.86,36.86,0,0,0,10.83,2.11c3.28,0,6.21-.88,7.44-3.61a6.44,6.44,0,0,0,.07-5.36,8.81,8.81,0,0,0-2.42-3C134.48,30.16,143.11,24.34,141.88,18.38ZM94,44.23a2,2,0,0,1-2.69-.71l-.69-1.15a2,2,0,1,1,3.38-2l.71,1.2A2,2,0,0,1,94,44.23ZM95.59,74.4a1.61,1.61,0,0,1-1.28.15,2.13,2.13,0,0,1-1.23-1.07l-5.17-9.67c1.12-.37,2.23-.75,3.29-1.16l5,9.15A1.83,1.83,0,0,1,95.59,74.4Zm13.19-7.05a1.84,1.84,0,0,1-2.52-.95l-4.79-8.75c1.08-.66,2.08-1.3,3.12-2.08l4.81,9.17A1.84,1.84,0,0,1,108.78,67.35Zm17-36.85a21.24,21.24,0,0,0-2-.79,2,2,0,0,0-1.19,3.76c1.22.38,4.91,2,5.86,4.07a2.48,2.48,0,0,1-.07,2.14c-1.07,2.4-8.6,1.08-14.13-.89,0-.2,0-.42,0-.61a1.84,1.84,0,0,0,0-.25A22.6,22.6,0,0,0,111,27.2a21.47,21.47,0,0,0-6.28-7,2,2,0,0,0-2.26,3.23,17.7,17.7,0,0,1,5.13,5.76l.06.13c-3.81-3.66-10.76-6.73-22.4-1.84-.3.13-.6.31-.91.45a48.7,48.7,0,0,1,6.19,7.15,2,2,0,0,1-3.2,2.3,43,43,0,0,0-6.7-7.48,61,61,0,0,0-11,8.66c5.26,4.18,9.47,11.35,10.47,15.09A2,2,0,0,1,78.75,56a1.84,1.84,0,0,1-.51.07,2,2,0,0,1-1.91-1.47c-.87-3.28-4.91-9.85-9.43-13.27A140.37,140.37,0,0,0,49.67,64.53c-1.05-.06-2-.13-2.79-.19,3.4-7.25,14.79-29,33.7-39.9,2-1.18,9.26-4.91,16.61-3.32a2,2,0,0,0,2.34-1.51,1.94,1.94,0,0,0-.69-1.91c.73-3,2.61-8.5,5.88-10.69a5.62,5.62,0,0,1,4.55-.79c1.48.33,1.71,1,1.8,1.19.68,1.84-1.35,5.81-3,8a2,2,0,0,0,3.16,2.35,24.3,24.3,0,0,0,3.33-6.34c3.74-3.68,10.14-8.41,12.68-7.4a1.19,1.19,0,0,1,.91,1.06c.48,3.11-4.5,10.41-10.23,15a2,2,0,0,0,2.46,3.08,41.73,41.73,0,0,0,4-3.74s.1,0,.16,0c3.34-1.48,9.63-3.3,12.31-1.92a2.2,2.2,0,0,1,1.2,1.67C138.68,22.33,131.3,27.67,125.82,30.5Z" transform="translate(0 0)"/></g><g id="SvgjsG1246"><path class="cls-2" d="M41.33,157.77c0,13.12-10.21,23.7-22.82,23.77H0V134H18.51C31.12,134.06,41.33,144.71,41.33,157.77ZM18.38,175.71a14.82,14.82,0,0,0,11.16-5.14,19.13,19.13,0,0,0,4.75-12.8A19,19,0,0,0,29.54,145a14.88,14.88,0,0,0-11.16-5.2H7v35.88ZM69,134l19.52,47.54h-7.6l-4.76-12.43H57.42l-4.69,12.43h-7.6L64.65,134Zm-9.32,29.28H73.9l-7.1-18.76ZM123,134h7v47.54h-7V160.68H100.59v20.86h-7V134h7v20.85H123Zm36.57,0,19.53,47.54h-7.61l-4.75-12.43H148l-4.69,12.43H135.7L155.22,134Zm-9.31,29.28h14.26l-7.1-18.76ZM220,150.86a16.62,16.62,0,0,1-10.2,15.59L220,181.54h-7.8l-9.31-13.82h-11.1v13.82h-7V134H203.2A16.68,16.68,0,0,1,220,150.86Zm-28.21-11v22.06h11.35c5.39,0,9.82-4.57,9.82-11s-4.43-11-9.82-11Z" transform="translate(0 0)"/></g></svg>