<svg id="Layer_1" data-name="Layer 1" xmlns="http://www.w3.org/2000/svg" viewBox="0 0 358.01 104.07"><defs><style>.cls-1{fill:#fff;}</style></defs><g id="SvgjsG1007"><path class="cls-1" d="M99.88,18.38A6.09,6.09,0,0,0,96.64,14c-2.72-1.4-6.57-1-9.8-.17C89,10.57,90.45,7.19,90,4.51A5.13,5.13,0,0,0,86.67.38C82.45-1.26,76.5,2.8,72.73,6a5.91,5.91,0,0,0-4.59-3.61,9.46,9.46,0,0,0-7.61,1.36C55.81,6.88,53.7,13.87,53,16.87A29.69,29.69,0,0,0,36.6,21C12.61,34.89.64,64,.14,65.27A2,2,0,0,0,.27,67,1.94,1.94,0,0,0,1.7,68a94.41,94.41,0,0,0,12.35.7A112.66,112.66,0,0,0,33.71,67a2,2,0,0,0,.76-.33l10.8,20.18c4,7.42,10.56,10.76,17.52,9,.82,1.55,2.21,4.19,3.87,7.29a2,2,0,0,0,3.47-1.86c-2.64-4.92-4.6-8.7-4.61-8.7a2,2,0,0,0-2.42-.94c-5.66,2.08-11-.41-14.36-6.65L38.18,65.23a10.13,10.13,0,0,0,3.15-1.62l6.28,11.72a6,6,0,0,0,3.56,3,5.62,5.62,0,0,0,4.27-.45,5.77,5.77,0,0,0,2.32-7.82l-.1-.18L50.74,57.29a9,9,0,0,0,3.17-1.6L60.8,68.27a5.71,5.71,0,0,0,10.27-5c-.06-.13-.13-.25-.2-.37L63.5,48.81a11.65,11.65,0,0,0,3.12-1.69L78.25,69.18c3,5.68,2,11.31-2.72,15.43A2,2,0,0,0,75.08,87l8.6,16.07a2,2,0,0,0,1.73,1,2,2,0,0,0,.93-.23,2,2,0,0,0,.81-2.67L79.26,86.5c5.11-5.22,6.07-12.43,2.47-19.18l-11.09-21a.58.58,0,0,0,.1-.13,24.74,24.74,0,0,0,1-3.38,37,37,0,0,0,10.83,2.11c3.28,0,6.21-.88,7.44-3.61A6.43,6.43,0,0,0,90.08,36a8.82,8.82,0,0,0-2.42-3C92.48,30.16,101.11,24.34,99.88,18.38ZM52,44.23a2,2,0,0,1-2.69-.71l-.69-1.15a2,2,0,0,1,3-2.65,2,2,0,0,1,.39.65l.71,1.2A2,2,0,0,1,52,44.23ZM53.59,74.4a1.6,1.6,0,0,1-1.28.15,2.1,2.1,0,0,1-1.23-1.07l-5.17-9.67c1.12-.37,2.23-.75,3.29-1.16l5,9.15a1.83,1.83,0,0,1-.51,2.54Zm13.19-7.05a1.85,1.85,0,0,1-2.47-.83l0-.12-4.79-8.75c1.08-.66,2.08-1.3,3.12-2.08l4.81,9.17a1.84,1.84,0,0,1-.52,2.55Zm17-36.85a20.26,20.26,0,0,0-2-.79,2,2,0,0,0-1.19,3.76c1.22.38,4.91,2,5.86,4.07a2.47,2.47,0,0,1-.07,2.14c-1.07,2.4-8.6,1.08-14.13-.89v-.61a1,1,0,0,0,0-.25A22.54,22.54,0,0,0,69,27.2a21.5,21.5,0,0,0-6.28-7,2,2,0,0,0-2.26,3.23,17.82,17.82,0,0,1,5.13,5.76l.06.13c-3.81-3.66-10.76-6.73-22.4-1.84-.3.13-.6.31-.91.45a49,49,0,0,1,6.19,7.15,2,2,0,0,1-3.2,2.3,42.53,42.53,0,0,0-6.7-7.48,60.57,60.57,0,0,0-11,8.66c5.26,4.18,9.47,11.35,10.47,15.09A2,2,0,0,1,36.75,56a1.79,1.79,0,0,1-.51.07,2,2,0,0,1-1.91-1.47c-.87-3.28-4.91-9.85-9.43-13.27A140,140,0,0,0,7.67,64.53l-2.79-.19c3.4-7.25,14.79-29,33.7-39.9,2-1.18,9.26-4.91,16.61-3.32a2,2,0,0,0,2.34-1.51,1.94,1.94,0,0,0-.69-1.91c.73-3,2.61-8.5,5.88-10.69a5.63,5.63,0,0,1,4.55-.79c1.48.33,1.71,1,1.8,1.19.68,1.84-1.35,5.81-3,8a2,2,0,0,0,3.16,2.35,24.17,24.17,0,0,0,3.33-6.34C76.3,7.78,82.7,3.05,85.24,4.06a1.19,1.19,0,0,1,.91,1.06c.48,3.11-4.5,10.41-10.23,15a2,2,0,0,0,2.46,3.08,42.86,42.86,0,0,0,4-3.74h.16c3.34-1.48,9.63-3.3,12.31-1.92A2.18,2.18,0,0,1,96,19.19c.68,3.14-6.7,8.48-12.18,11.31Z" transform="translate(0.01 0)"/></g><g id="SvgjsG1008"><path class="cls-1" d="M179.33,61.77c0,13.12-10.21,23.7-22.82,23.77H138V38h18.51C169.12,38.06,179.33,48.71,179.33,61.77Zm-23,17.94a14.81,14.81,0,0,0,11.16-5.14,19.55,19.55,0,0,0,0-25.54,14.87,14.87,0,0,0-11.16-5.2H145V79.71ZM207,38l19.52,47.54h-7.6l-4.76-12.43h-18.7l-4.69,12.43h-7.6L202.65,38Zm-9.32,29.28H211.9l-7.1-18.76ZM261,38h7V85.54h-7V64.68H238.59V85.54h-7V38h7V58.85H261Zm36.57,0L317.1,85.54h-7.61L304.7,73.11H286l-4.69,12.43H273.7L293.22,38Zm-9.31,29.28h14.26l-7.1-18.76ZM358,54.86a16.61,16.61,0,0,1-10.2,15.59L358,85.54h-7.8l-9.31-13.82h-11.1V85.54h-7V38H341.2A16.68,16.68,0,0,1,358,54.56Zm-28.21-11v22h11.35c5.39,0,9.82-4.57,9.82-11s-4.43-11-9.82-11Z" transform="translate(0.01 0)"/></g></svg>