<svg id="Layer_1" data-name="Layer 1" xmlns="http://www.w3.org/2000/svg" viewBox="0 0 100 104.15"><defs><style>.cls-1{fill:#96d7c6;}</style></defs><g id="SvgjsG1245"><path class="cls-1" d="M155.49,54a6.11,6.11,0,0,0-3.25-4.37c-2.72-1.4-6.57-1-9.79-.17,2.16-3.27,3.6-6.65,3.2-9.33A5.17,5.17,0,0,0,142.27,36c-4.21-1.64-10.17,2.42-13.94,5.59a5.87,5.87,0,0,0-4.59-3.6,9.45,9.45,0,0,0-7.61,1.35c-4.72,3.16-6.83,10.15-7.54,13.15A29.71,29.71,0,0,0,92.2,56.64c-24,13.89-35.95,43-36.45,44.26a2,2,0,0,0,1.55,2.69,98.06,98.06,0,0,0,12.35.69,112.44,112.44,0,0,0,19.66-1.68,1.9,1.9,0,0,0,.77-.33l10.79,20.18c4,7.42,10.57,10.76,17.53,9,.81,1.54,2.21,4.18,3.86,7.28a2,2,0,1,0,3.47-1.86c-2.63-4.92-4.6-8.7-4.6-8.7a2,2,0,0,0-2.42-.94c-5.67,2.08-11-.41-14.37-6.64L93.78,100.86a10.2,10.2,0,0,0,3.15-1.62L103.21,111a6,6,0,0,0,3.56,3,5.58,5.58,0,0,0,4.28-.45,5.76,5.76,0,0,0,2.22-7.94l-6.93-12.64a8.86,8.86,0,0,0,3.17-1.6l6.89,12.58a5.71,5.71,0,1,0,10.07-5.37L119.1,84.44a11.4,11.4,0,0,0,3.12-1.69l11.63,22.06c3,5.69,2.05,11.31-2.72,15.43a2,2,0,0,0-.45,2.42l8.6,16.07a2,2,0,1,0,3.47-1.86l-7.89-14.74c5.11-5.21,6.08-12.43,2.47-19.17l-11.09-21s.08-.07.1-.13a22.93,22.93,0,0,0,1-3.38,36.87,36.87,0,0,0,10.84,2.11c3.27,0,6.2-.88,7.43-3.61a6.4,6.4,0,0,0,.07-5.36,8.81,8.81,0,0,0-2.42-3C148.09,65.79,156.71,60,155.49,54ZM107.61,79.86a2,2,0,0,1-2.69-.71L104.24,78a2,2,0,0,1,.68-2.7,2,2,0,0,1,2.7.67l.7,1.2A2,2,0,0,1,107.61,79.86ZM109.19,110a1.61,1.61,0,0,1-1.28.15,2.19,2.19,0,0,1-1.23-1.07l-5.16-9.67c1.11-.37,2.23-.75,3.28-1.16l5,9.15A1.83,1.83,0,0,1,109.19,110Zm13.19-7a1.83,1.83,0,0,1-2.51-1l-4.79-8.75c1.08-.66,2.08-1.29,3.12-2.07l4.8,9.17A1.83,1.83,0,0,1,122.38,103Zm17.05-36.85a17.47,17.47,0,0,0-2-.78,2,2,0,1,0-1.18,3.75c1.22.39,4.9,2,5.85,4.08a2.42,2.42,0,0,1-.06,2.13c-1.08,2.4-8.61,1.08-14.13-.89,0-.2,0-.42,0-.61a1.84,1.84,0,0,0,0-.25,22.49,22.49,0,0,0-3.26-10.73,21.56,21.56,0,0,0-6.28-7A2,2,0,1,0,116.1,59a17.79,17.79,0,0,1,5.12,5.76s0,.08.07.13c-3.81-3.66-10.77-6.73-22.4-1.84-.31.13-.61.31-.91.45a48.07,48.07,0,0,1,6.18,7.15,2,2,0,0,1-.45,2.75,2,2,0,0,1-1.15.37A2,2,0,0,1,101,73a42.25,42.25,0,0,0-6.7-7.48,60.92,60.92,0,0,0-11,8.66c5.26,4.18,9.46,11.35,10.46,15.09a2,2,0,0,1-1.39,2.41,1.79,1.79,0,0,1-.51.07,2,2,0,0,1-1.9-1.46C89.06,87,85,80.42,80.51,77a140.61,140.61,0,0,0-17.24,23.16c-1.05-.06-2-.13-2.78-.19,3.39-7.25,14.78-29,33.69-39.9,2-1.18,9.26-4.91,16.61-3.32a2,2,0,0,0,1.66-3.42c.73-3,2.6-8.5,5.88-10.69a5.6,5.6,0,0,1,4.54-.79c1.48.33,1.71,1,1.8,1.19.68,1.84-1.34,5.81-3,8a2,2,0,0,0,3.16,2.35,24,24,0,0,0,3.33-6.34c3.74-3.68,10.14-8.4,12.68-7.4a1.22,1.22,0,0,1,.92,1.06c.47,3.12-4.5,10.41-10.24,15A2,2,0,0,0,134,58.84a40.61,40.61,0,0,0,4-3.74c.05,0,.1,0,.15,0,3.34-1.48,9.63-3.3,12.32-1.92a2.22,2.22,0,0,1,1.19,1.67C152.28,58,144.9,63.3,139.43,66.13Z" transform="translate(-55.6 -35.63)"/></g></svg>